<?xml version="1.0" standalone="no"?>
<!DOCTYPE svg PUBLIC "-//W3C//DTD SVG 20010904//EN"
 "http://www.w3.org/TR/2001/REC-SVG-20010904/DTD/svg10.dtd">
<svg version="1.0" xmlns="http://www.w3.org/2000/svg"
 width="479.000000pt" height="215.000000pt" viewBox="0 0 479.000000 215.000000"
 preserveAspectRatio="xMidYMid meet">
<metadata>
Created by potrace 1.16, written by Peter Selinger 2001-2019
</metadata>
<g transform="translate(0.000000,215.000000) scale(0.100000,-0.100000)"
fill="#000000" stroke="none">
<path d="M2925 1972 c-50 -32 -141 -91 -202 -132 -62 -40 -113 -75 -113 -79 0
-3 -7 -82 -15 -176 -38 -445 -45 -529 -42 -531 1 -1 37 26 79 60 42 33 112 89
156 123 l79 62 21 98 c12 54 37 172 57 263 19 91 44 206 56 257 12 51 19 97
17 103 -2 6 -43 -15 -93 -48z"/>
<path d="M413 1733 c-55 -43 -112 -87 -126 -98 l-26 -20 140 -185 c77 -102
146 -193 153 -202 12 -16 21 -9 99 69 l86 87 -53 101 c-30 55 -80 151 -111
213 -31 61 -58 112 -59 112 -1 0 -48 -35 -103 -77z"/>
<path d="M4077 1629 l-37 -30 0 -385 c0 -211 2 -384 5 -384 10 0 460 301 463
309 1 5 -12 26 -30 48 -18 22 -105 137 -193 256 -88 118 -162 216 -165 216 -3
1 -22 -13 -43 -30z"/>
<path d="M1226 1266 l-199 -194 39 -151 c21 -83 41 -151 44 -151 3 1 50 96
104 213 55 117 128 272 162 345 35 72 60 132 56 132 -4 -1 -97 -88 -206 -194z"/>
<path d="M1638 1344 c11 -21 52 -95 91 -164 39 -69 101 -180 138 -247 37 -67
69 -121 70 -120 1 2 3 104 4 227 1 210 0 225 -17 232 -11 4 -75 27 -144 51
-69 25 -133 48 -143 52 -18 7 -18 6 1 -31z"/>
<path d="M380 375 c0 -8 9 -15 20 -15 19 0 20 -7 20 -105 0 -98 -1 -105 -20
-105 -11 0 -20 -7 -20 -15 0 -12 19 -15 111 -15 l110 0 -3 37 c-2 27 -8 39
-20 41 -13 3 -18 -3 -18 -22 0 -25 -3 -26 -55 -26 l-55 0 0 45 0 45 60 0 c47
0 60 3 60 15 0 12 -13 15 -60 15 l-60 0 0 45 0 45 55 0 c48 0 55 -2 55 -20 0
-11 7 -20 15 -20 10 0 15 11 15 35 l0 35 -105 0 c-87 0 -105 -3 -105 -15z"/>
<path d="M660 375 c0 -8 8 -15 18 -15 14 0 28 -28 62 -120 61 -162 69 -162
130 0 34 90 49 120 63 120 9 0 17 7 17 15 0 12 -13 15 -55 15 -42 0 -55 -3
-55 -15 0 -9 9 -15 21 -15 16 0 19 -4 14 -17 -4 -10 -18 -49 -32 -88 -14 -38
-29 -74 -33 -78 -4 -4 -23 34 -42 85 -33 86 -34 93 -17 96 11 2 19 10 19 18 0
10 -14 14 -55 14 -42 0 -55 -3 -55 -15z"/>
<path d="M1080 377 c-61 -31 -88 -123 -55 -187 25 -49 61 -70 121 -70 48 0 59
4 92 34 36 33 37 37 37 101 0 64 -1 68 -37 101 -32 29 -45 34 -85 34 -27 0
-59 -6 -73 -13z m127 -32 c33 -23 48 -83 33 -129 -15 -46 -44 -66 -96 -66 -62
0 -94 36 -94 105 0 43 5 57 26 79 31 30 95 36 131 11z"/>
<path d="M1360 375 c0 -8 9 -15 20 -15 19 0 20 -7 20 -105 0 -98 -1 -105 -20
-105 -11 0 -20 -7 -20 -15 0 -12 19 -15 110 -15 l110 0 0 40 c0 33 -3 40 -20
40 -15 0 -20 -7 -20 -25 0 -24 -3 -25 -55 -25 l-55 0 0 105 0 105 25 0 c16 0
25 6 25 15 0 12 -13 15 -60 15 -47 0 -60 -3 -60 -15z"/>
<path d="M1600 375 c0 -8 8 -15 18 -15 14 0 28 -28 62 -120 61 -162 69 -162
130 0 34 90 49 120 63 120 9 0 17 7 17 15 0 12 -13 15 -55 15 -42 0 -55 -3
-55 -15 0 -9 9 -15 21 -15 16 0 19 -4 14 -17 -4 -10 -18 -49 -32 -88 -14 -38
-29 -74 -33 -78 -4 -4 -23 34 -42 85 -33 86 -34 93 -17 96 11 2 19 10 19 18 0
10 -14 14 -55 14 -42 0 -55 -3 -55 -15z"/>
<path d="M1960 375 c0 -8 9 -15 20 -15 19 0 20 -7 20 -105 0 -98 -1 -105 -20
-105 -11 0 -20 -7 -20 -15 0 -12 19 -15 111 -15 l110 0 -3 37 c-2 27 -8 39
-20 41 -13 3 -18 -3 -18 -22 0 -25 -3 -26 -55 -26 l-55 0 0 45 0 45 60 0 c47
0 60 3 60 15 0 12 -13 15 -60 15 l-60 0 0 45 0 45 55 0 c48 0 55 -2 55 -20 0
-11 7 -20 15 -20 10 0 15 11 15 35 l0 35 -105 0 c-87 0 -105 -3 -105 -15z"/>
<path d="M2260 375 c0 -8 9 -15 20 -15 19 0 20 -7 20 -105 0 -98 -1 -105 -20
-105 -11 0 -20 -7 -20 -15 0 -12 15 -15 75 -15 130 0 185 40 185 135 0 95 -55
135 -185 135 -60 0 -75 -3 -75 -15z m180 -30 c62 -32 62 -148 0 -180 -16 -8
-47 -15 -70 -15 l-40 0 0 105 0 105 40 0 c23 0 54 -7 70 -15z"/>
<path d="M2768 384 c21 -5 22 -9 22 -129 l0 -124 -27 -4 c-16 -2 13 -5 63 -6
79 -1 95 2 118 20 35 27 35 70 0 98 l-25 20 20 20 c26 26 27 52 2 82 -17 22
-28 24 -108 26 -48 1 -78 -1 -65 -3z m167 -159 c30 -29 31 -36 7 -65 -14 -18
-32 -24 -75 -28 l-57 -4 0 61 0 61 50 0 c41 0 56 -5 75 -25z"/>
<path d="M3698 383 c12 -2 22 -9 22 -14 0 -5 -21 -61 -46 -124 -36 -88 -52
-115 -68 -118 -12 -2 4 -4 34 -4 30 0 45 2 33 4 -26 5 -27 8 -12 52 11 31 12
31 79 31 67 0 68 0 79 -31 15 -44 14 -47 -11 -52 -13 -2 2 -4 32 -4 30 0 46 2
34 4 -16 3 -32 31 -71 131 l-51 127 -38 2 c-22 0 -29 -1 -16 -4z"/>
<path d="M3968 383 c21 -4 22 -8 22 -128 l0 -124 -27 -4 c-16 -2 -1 -4 32 -4
33 0 50 2 38 4 -20 4 -23 11 -23 54 l0 49 38 0 c35 0 39 -3 67 -55 26 -49 33
-55 60 -54 26 2 27 2 5 6 -18 3 -33 19 -53 55 -16 27 -27 51 -25 52 55 25 76
62 59 103 -17 42 -49 53 -139 52 -42 -1 -67 -4 -54 -6z m139 -14 c33 -12 43
-26 43 -60 0 -37 -27 -57 -88 -65 l-52 -7 0 72 0 71 34 0 c19 0 47 -5 63 -11z"/>
</g>
</svg>
